<svg width="135" height="50" viewBox="0 0 135 50" fill="none" xmlns="http://www.w3.org/2000/svg">
<path d="M21.0114 46V34.3636H28.8523V36.392H23.4716V39.1648H28.4489V41.1932H23.4716V43.9716H28.875V46H21.0114ZM34.9332 46H30.8082V34.3636H34.9673C36.1378 34.3636 37.1454 34.5966 37.9901 35.0625C38.8348 35.5246 39.4844 36.1894 39.9389 37.0568C40.3973 37.9242 40.6264 38.9621 40.6264 40.1705C40.6264 41.3826 40.3973 42.4242 39.9389 43.2955C39.4844 44.1667 38.831 44.8352 37.9787 45.3011C37.1302 45.767 36.1151 46 34.9332 46ZM33.2685 43.892H34.831C35.5582 43.892 36.17 43.7633 36.6662 43.5057C37.1662 43.2443 37.5412 42.8409 37.7912 42.2955C38.045 41.7462 38.1719 41.0379 38.1719 40.1705C38.1719 39.3106 38.045 38.608 37.7912 38.0625C37.5412 37.517 37.1681 37.1155 36.6719 36.858C36.1757 36.6004 35.5639 36.4716 34.8366 36.4716H33.2685V43.892ZM49.6364 34.3636H52.0966V41.9205C52.0966 42.7689 51.8939 43.5114 51.4886 44.1477C51.0871 44.7841 50.5246 45.2803 49.8011 45.6364C49.0777 45.9886 48.2348 46.1648 47.2727 46.1648C46.3068 46.1648 45.4621 45.9886 44.7386 45.6364C44.0152 45.2803 43.4527 44.7841 43.0511 44.1477C42.6496 43.5114 42.4489 42.7689 42.4489 41.9205V34.3636H44.9091V41.7102C44.9091 42.1534 45.0057 42.5473 45.1989 42.892C45.3958 43.2367 45.6723 43.5076 46.0284 43.7045C46.3845 43.9015 46.7992 44 47.2727 44C47.75 44 48.1648 43.9015 48.517 43.7045C48.8731 43.5076 49.1477 43.2367 49.3409 42.892C49.5379 42.5473 49.6364 42.1534 49.6364 41.7102V34.3636ZM64.3878 38.4375H61.8991C61.8537 38.1155 61.7609 37.8295 61.6207 37.5795C61.4806 37.3258 61.3007 37.1098 61.081 36.9318C60.8613 36.7538 60.6075 36.6174 60.3196 36.5227C60.0355 36.428 59.7268 36.3807 59.3935 36.3807C58.7912 36.3807 58.2666 36.5303 57.8196 36.8295C57.3726 37.125 57.026 37.5568 56.7798 38.125C56.5336 38.6894 56.4105 39.375 56.4105 40.1818C56.4105 41.0114 56.5336 41.7083 56.7798 42.2727C57.0298 42.8371 57.3783 43.2633 57.8253 43.5511C58.2723 43.839 58.7893 43.983 59.3764 43.983C59.706 43.983 60.0109 43.9394 60.2912 43.8523C60.5753 43.7652 60.8272 43.6383 61.0469 43.4716C61.2666 43.3011 61.4484 43.0947 61.5923 42.8523C61.7401 42.6098 61.8423 42.3333 61.8991 42.0227L64.3878 42.0341C64.3234 42.5682 64.1624 43.0833 63.9048 43.5795C63.651 44.072 63.3082 44.5133 62.8764 44.9034C62.4484 45.2898 61.937 45.5966 61.3423 45.8239C60.7514 46.0473 60.0829 46.1591 59.3366 46.1591C58.2988 46.1591 57.3707 45.9242 56.5526 45.4545C55.7382 44.9848 55.0942 44.3049 54.6207 43.4148C54.151 42.5246 53.9162 41.447 53.9162 40.1818C53.9162 38.9129 54.1548 37.8333 54.6321 36.9432C55.1094 36.053 55.7571 35.375 56.5753 34.9091C57.3935 34.4394 58.3139 34.2045 59.3366 34.2045C60.0109 34.2045 60.6359 34.2992 61.2116 34.4886C61.7912 34.678 62.3045 34.9545 62.7514 35.3182C63.1984 35.678 63.562 36.1193 63.8423 36.642C64.1264 37.1648 64.3082 37.7633 64.3878 38.4375ZM67.9389 46H65.3026L69.3196 34.3636H72.4901L76.5014 46H73.8651L70.9503 37.0227H70.8594L67.9389 46ZM67.7741 41.4261H74.0014V43.3466H67.7741V41.4261ZM76.0369 36.392V34.3636H85.5938V36.392H82.0312V46H79.5994V36.392H76.0369ZM89.6278 34.3636V46H87.1676V34.3636H89.6278ZM102.345 40.1818C102.345 41.4508 102.105 42.5303 101.624 43.4205C101.146 44.3106 100.495 44.9905 99.669 45.4602C98.8471 45.9261 97.9228 46.1591 96.8963 46.1591C95.8622 46.1591 94.9342 45.9242 94.1122 45.4545C93.2902 44.9848 92.6406 44.3049 92.1634 43.4148C91.6861 42.5246 91.4474 41.447 91.4474 40.1818C91.4474 38.9129 91.6861 37.8333 92.1634 36.9432C92.6406 36.053 93.2902 35.375 94.1122 34.9091C94.9342 34.4394 95.8622 34.2045 96.8963 34.2045C97.9228 34.2045 98.8471 34.4394 99.669 34.9091C100.495 35.375 101.146 36.053 101.624 36.9432C102.105 37.8333 102.345 38.9129 102.345 40.1818ZM99.8509 40.1818C99.8509 39.3598 99.7277 38.6667 99.4815 38.1023C99.2391 37.5379 98.8963 37.1098 98.4531 36.8182C98.0099 36.5265 97.491 36.3807 96.8963 36.3807C96.3016 36.3807 95.7827 36.5265 95.3395 36.8182C94.8963 37.1098 94.5516 37.5379 94.3054 38.1023C94.063 38.6667 93.9418 39.3598 93.9418 40.1818C93.9418 41.0038 94.063 41.697 94.3054 42.2614C94.5516 42.8258 94.8963 43.2538 95.3395 43.5455C95.7827 43.8371 96.3016 43.983 96.8963 43.983C97.491 43.983 98.0099 43.8371 98.4531 43.5455C98.8963 43.2538 99.2391 42.8258 99.4815 42.2614C99.7277 41.697 99.8509 41.0038 99.8509 40.1818ZM113.901 34.3636V46H111.776L106.713 38.6761H106.628V46H104.168V34.3636H106.327L111.349 41.6818H111.452V34.3636H113.901Z" fill="#090909"/>
<g clip-path="url(#clip0_1741_55)">
<path d="M96.375 1.25L92.75 16L88.75 1.25H84.375L80.375 16L76.875 1.25H71.875L77.875 23.75H82.25L86.5 9H86.625L90.875 23.75H95.25L101.25 1.25H96.375Z" fill="#090909"/>
<path d="M115.875 12.125C117.375 11.25 118.5 9.625 118.5 7.25C118.5 3.75 116.25 1.25 111.375 1.25H102.25V23.75H106.875H111.125C116 23.75 118.875 21.625 118.875 17.25C119 14.625 117.375 12.625 115.875 12.125ZM107 5.25H110.875C112.75 5.25 113.75 6 113.75 7.875C113.75 9.625 112.75 10.5 110.875 10.5H107V5.25ZM111.125 19.75H107V14.375H111.125C113.125 14.375 114.125 15.25 114.125 17.125C114.125 18.875 113 19.75 111.125 19.75Z" fill="#090909"/>
<path d="M125.625 19.25V1.25H120.875V23.75H135V19.25H125.625Z" fill="#090909"/>
<path d="M66.25 1.25L61.375 17H61.25L56.375 1.25H51.375L58.75 23.75H63.875L71.125 1.25H66.25Z" fill="#090909"/>
<path d="M34.25 8.375C31.875 8.375 30 10.25 30 12.5C30 14.75 31.875 16.625 34.125 16.625C36.375 16.625 38.25 14.75 38.25 12.5C38.25 10.25 36.5 8.375 34.25 8.375ZM34.25 0C29.75 0 25.75 2.375 23.625 5.875C23.5 6 23.25 6 23.25 5.875C21 2.375 17 0 12.5 0C5.5 0 0 5.5 0 12.5C0 19.5 5.5 25 12.5 25C17 25 21 22.625 23.125 19.125C23.25 19 23.5 19 23.5 19.125C25.625 22.75 29.625 25 34.125 25C41 25 46.625 19.5 46.625 12.5C46.75 5.5 41.125 0 34.25 0ZM4.25 10.25C5.125 6.375 8.375 3.875 12.5 3.875C16.5 3.875 19.875 6.375 20.75 10.25C20.75 10.375 20.625 10.5 20.5 10.5H4.5C4.25 10.625 4.125 10.375 4.25 10.25ZM20.75 14.75C19.875 18.625 16.5 21.125 12.5 21.125C8.5 21.125 5.125 18.5 4.25 14.75C4.25 14.625 4.375 14.5 4.5 14.5H20.5C20.625 14.375 20.75 14.625 20.75 14.75ZM34.25 21.125C29.5 21.125 25.75 17.5 25.75 12.5C25.75 7.375 29.5 3.875 34.25 3.875C39 3.875 42.75 7.5 42.75 12.5C42.75 17.625 39 21.125 34.25 21.125Z" fill="#090909"/>
</g>
<defs>
<clipPath id="clip0_1741_55">
<rect width="135" height="25" fill="white"/>
</clipPath>
</defs>
</svg>
